<?xml version="1.0" encoding="UTF-8" standalone="no"?>
<!-- Uploaded to: SVG Repo, www.svgrepo.com, Generator: SVG Repo Mixer Tools -->

<svg
   width="666.66675"
   height="666.65491"
   viewBox="0 0 160.00002 159.99718"
   xml:space="preserve"
   fill="none"
   version="1.1"
   id="svg2"
   sodipodi:docname="sber-svgrepo-com.svg"
   xmlns:inkscape="http://www.inkscape.org/namespaces/inkscape"
   xmlns:sodipodi="http://sodipodi.sourceforge.net/DTD/sodipodi-0.dtd"
   xmlns="http://www.w3.org/2000/svg"
   xmlns:svg="http://www.w3.org/2000/svg"><defs
   id="defs2" /><sodipodi:namedview
   id="namedview2"
   pagecolor="#ffffff"
   bordercolor="#111111"
   borderopacity="1"
   inkscape:showpageshadow="0"
   inkscape:pageopacity="0"
   inkscape:pagecheckerboard="1"
   inkscape:deskcolor="#d1d1d1" />&#10;&#10;<g
   fill="#a7a7a7"
   style="display:inline;fill:#32ce90;fill-opacity:1;stroke:#32ce90;stroke-width:1.26316;stroke-linecap:round;stroke-linejoin:round;stroke-dasharray:none;stroke-opacity:1"
   id="g2"
   transform="translate(-18.107094,-18.11018)">&#10;&#10;<path
   d="m 32.018,40.907 a 80.02,80.02 0 0 0 6.078,30.625 80.062,80.062 0 0 0 17.34,25.966 80,80 0 0 0 136.582,-56.591 c 0,-4.804 -0.425,-9.6 -1.266,-14.33 l -17.204,12.688 c 0,0.547 0.035,1.094 0.035,1.642 A 61.54,61.54 0 0 1 160.537,78.858 61.57,61.57 0 0 1 126.87,100.702 61.568,61.568 0 0 1 86.892,97.152 61.57,61.57 0 0 1 57.602,69.717 61.54,61.54 0 0 1 71.05,-4.962 a 61.533,61.533 0 0 1 37.015,-15.499 61.564,61.564 0 0 1 38.707,10.612 l 15.557,-11.458 a 80.036,80.036 0 0 0 -84.75,-9.94 80.042,80.042 0 0 0 -45.56,72.154 z"
   style="display:inline;fill:#32ce90;fill-opacity:1;stroke:#32ce90;stroke-width:8.42105;stroke-linecap:round;stroke-linejoin:round;stroke-dasharray:none;stroke-opacity:1"
   transform="matrix(0.95,0,0,0.95,-8.31,59.213)"
   id="path1" />&#10;&#10;<path
   d="M 112.133,38.565 81.595,19.409 V 42.444 L 112.133,61.599 185.257,7.703 A 81.117,81.117 0 0 0 175.65,-8.26 Z"
   style="display:inline;fill:#32ce90;fill-opacity:1;stroke:#32ce90;stroke-width:8.42105;stroke-linecap:round;stroke-linejoin:round;stroke-dasharray:none;stroke-opacity:1"
   transform="matrix(0.95,0,0,0.95,-8.31,59.213)"
   id="path2" />&#10;&#10;</g>&#10;&#10;</svg>
